<svg width="2678" height="1045" viewBox="0 0 2678 1045" fill="none" xmlns="http://www.w3.org/2000/svg">
<path d="M1154.78 485.864C1179.3 485.864 1198.19 491.996 1211.42 504.26C1224.66 516.524 1231.28 532.973 1231.28 553.608C1231.28 574.243 1224.56 590.692 1211.13 602.956C1197.89 615.025 1179.01 621.06 1154.48 621.06H1126.45V669.532C1126.45 672.647 1125.77 674.885 1124.41 676.248C1123.05 677.416 1120.9 678 1117.98 678H1089.08C1086.16 678 1084.01 677.416 1082.65 676.248C1081.29 674.885 1080.61 672.647 1080.61 669.532V494.332C1080.61 491.412 1081.19 489.271 1082.36 487.908C1083.72 486.545 1085.96 485.864 1089.08 485.864H1154.78ZM1154.48 581.64C1165.19 581.64 1173.27 579.109 1178.72 574.048C1184.37 568.792 1187.19 562.271 1187.19 554.484C1187.19 546.308 1184.46 539.689 1179.01 534.628C1173.56 529.567 1165.39 527.036 1154.48 527.036H1126.45V581.64H1154.48ZM1422.23 616.388C1422.23 630.793 1418.24 642.96 1410.26 652.888C1402.47 662.816 1392.54 670.213 1380.47 675.08C1368.4 679.947 1356.14 682.38 1343.68 682.38C1331.22 682.38 1318.96 680.044 1306.89 675.372C1295.01 670.505 1285.18 663.108 1277.4 653.18C1269.61 643.057 1265.72 630.793 1265.72 616.388V547.476C1265.72 533.071 1269.61 520.904 1277.4 510.976C1285.18 500.853 1295.01 493.456 1306.89 488.784C1318.96 483.917 1331.22 481.484 1343.68 481.484C1356.14 481.484 1368.4 483.917 1380.47 488.784C1392.54 493.651 1402.47 501.048 1410.26 510.976C1418.24 520.904 1422.23 533.071 1422.23 547.476V616.388ZM1376.38 551.564C1376.38 542.415 1373.37 535.212 1367.33 529.956C1361.3 524.7 1353.41 522.072 1343.68 522.072C1333.95 522.072 1326.06 524.7 1320.03 529.956C1314.19 535.212 1311.27 542.415 1311.27 551.564V612.3C1311.27 621.449 1314.19 628.652 1320.03 633.908C1326.06 639.164 1333.95 641.792 1343.68 641.792C1353.41 641.792 1361.3 639.164 1367.33 633.908C1373.37 628.652 1376.38 621.449 1376.38 612.3V551.564ZM1596.71 637.12C1599.82 637.12 1601.96 637.801 1603.13 639.164C1604.49 640.527 1605.17 642.668 1605.17 645.588V669.532C1605.17 672.452 1604.49 674.593 1603.13 675.956C1601.96 677.319 1599.82 678 1596.71 678H1475.23C1472.12 678 1469.88 677.319 1468.52 675.956C1467.35 674.593 1466.77 672.452 1466.77 669.532V494.332C1466.77 491.217 1467.45 489.076 1468.81 487.908C1470.17 486.545 1472.31 485.864 1475.23 485.864H1504.14C1507.06 485.864 1509.2 486.545 1510.57 487.908C1511.93 489.076 1512.61 491.217 1512.61 494.332V637.12H1596.71ZM1804.04 485.864C1805.59 485.864 1806.76 486.253 1807.54 487.032C1808.32 487.811 1808.71 488.784 1808.71 489.952C1808.71 491.509 1808.12 492.872 1806.96 494.04L1741.26 565.288L1804.04 668.656C1804.81 669.629 1805.2 670.992 1805.2 672.744C1805.2 674.107 1804.72 675.372 1803.74 676.54C1802.77 677.513 1801.41 678 1799.66 678H1764.03C1760.72 678 1757.9 677.319 1755.56 675.956C1753.42 674.399 1751.38 671.965 1749.43 668.656L1707.68 598.576L1689.57 617.556V669.532C1689.57 672.647 1688.89 674.885 1687.53 676.248C1686.17 677.416 1684.12 678 1681.4 678H1652.49C1649.57 678 1647.43 677.416 1646.06 676.248C1644.7 675.08 1644.02 672.841 1644.02 669.532V494.332C1644.02 491.023 1644.7 488.784 1646.06 487.616C1647.43 486.448 1649.57 485.864 1652.49 485.864H1681.4C1684.12 485.864 1686.17 486.545 1687.53 487.908C1688.89 489.076 1689.57 491.217 1689.57 494.332V559.448L1750.02 492.872C1752.94 489.757 1755.17 487.811 1756.73 487.032C1758.48 486.253 1761.11 485.864 1764.62 485.864H1804.04ZM2007.65 669.824C2008.23 670.992 2008.52 672.16 2008.52 673.328C2008.52 676.443 2006.58 678 2002.68 678H1972.02C1968.71 678 1966.28 677.416 1964.72 676.248C1963.36 675.08 1962.09 672.744 1960.93 669.24L1952.75 646.172H1881.21L1873.03 669.24C1871.87 672.744 1870.5 675.08 1868.95 676.248C1867.58 677.416 1865.25 678 1861.94 678H1831.28C1827.39 678 1825.44 676.443 1825.44 673.328C1825.44 672.16 1825.73 670.992 1826.31 669.824L1891.14 494.916C1892.31 491.801 1893.77 489.563 1895.52 488.2C1897.47 486.643 1900 485.864 1903.11 485.864H1931.14C1934.26 485.864 1936.69 486.643 1938.44 488.2C1940.19 489.563 1941.75 491.801 1943.11 494.916L2007.65 669.824ZM1917.13 540.76L1895.23 605.292H1939.03L1917.13 540.76ZM2213.29 485.572C2216.41 485.572 2218.55 486.253 2219.72 487.616C2221.08 488.979 2221.76 491.12 2221.76 494.04V669.532C2221.76 672.647 2221.08 674.885 2219.72 676.248C2218.36 677.416 2216.21 678 2213.29 678H2185.26C2182.34 678 2180.2 677.416 2178.84 676.248C2177.48 674.885 2176.79 672.647 2176.79 669.532V570.544L2147.59 621.644C2145.06 625.732 2142.24 627.776 2139.13 627.776H2124.53C2122.58 627.776 2121.02 627.192 2119.85 626.024C2118.69 624.856 2117.52 623.396 2116.35 621.644L2086.86 570.544V669.532C2086.86 672.647 2086.18 674.885 2084.81 676.248C2083.45 677.416 2081.31 678 2078.39 678H2049.48C2046.56 678 2044.42 677.416 2043.06 676.248C2041.7 674.885 2041.01 672.647 2041.01 669.532V494.04C2041.01 491.12 2041.6 488.979 2042.77 487.616C2044.13 486.253 2046.37 485.572 2049.48 485.572H2078.39C2081.89 485.572 2084.42 486.253 2085.98 487.616C2087.73 488.979 2089 490.536 2089.78 492.288C2090.75 493.845 2091.43 494.916 2091.82 495.5L2131.83 567.332L2172.12 495.5C2172.51 494.916 2173.1 493.748 2173.87 491.996C2174.85 490.049 2176.21 488.492 2177.96 487.324C2179.91 486.156 2182.34 485.572 2185.26 485.572H2213.29ZM2423.13 616.388C2423.13 630.793 2419.14 642.96 2411.15 652.888C2403.37 662.816 2393.44 670.213 2381.37 675.08C2369.3 679.947 2357.04 682.38 2344.58 682.38C2332.12 682.38 2319.86 680.044 2307.79 675.372C2295.91 670.505 2286.08 663.108 2278.29 653.18C2270.51 643.057 2266.61 630.793 2266.61 616.388V547.476C2266.61 533.071 2270.51 520.904 2278.29 510.976C2286.08 500.853 2295.91 493.456 2307.79 488.784C2319.86 483.917 2332.12 481.484 2344.58 481.484C2357.04 481.484 2369.3 483.917 2381.37 488.784C2393.44 493.651 2403.37 501.048 2411.15 510.976C2419.14 520.904 2423.13 533.071 2423.13 547.476V616.388ZM2377.28 551.564C2377.28 542.415 2374.26 535.212 2368.23 529.956C2362.2 524.7 2354.31 522.072 2344.58 522.072C2334.84 522.072 2326.96 524.7 2320.93 529.956C2315.09 535.212 2312.17 542.415 2312.17 551.564V612.3C2312.17 621.449 2315.09 628.652 2320.93 633.908C2326.96 639.164 2334.84 641.792 2344.58 641.792C2354.31 641.792 2362.2 639.164 2368.23 633.908C2374.26 628.652 2377.28 621.449 2377.28 612.3V551.564ZM2615.13 485.864C2618.05 485.864 2620.19 486.545 2621.55 487.908C2622.91 489.076 2623.59 491.217 2623.59 494.332V669.532C2623.59 672.452 2622.91 674.593 2621.55 675.956C2620.38 677.319 2618.24 678 2615.13 678H2588.55C2585.24 678 2582.81 677.319 2581.25 675.956C2579.89 674.593 2577.94 671.965 2575.41 668.072L2513.51 567.916V669.532C2513.51 672.647 2512.83 674.885 2511.47 676.248C2510.1 677.416 2507.96 678 2505.04 678H2476.13C2473.21 678 2471.07 677.416 2469.71 676.248C2468.35 674.885 2467.67 672.647 2467.67 669.532V494.332C2467.67 491.412 2468.25 489.271 2469.42 487.908C2470.78 486.545 2473.02 485.864 2476.13 485.864H2503.58C2506.89 485.864 2509.23 486.545 2510.59 487.908C2512.15 489.271 2514.19 491.899 2516.72 495.792L2578.63 595.656V494.332C2578.63 491.217 2579.31 489.076 2580.67 487.908C2582.03 486.545 2584.17 485.864 2587.09 485.864H2615.13Z" fill="#FF3369"/>
<path fill-rule="evenodd" clip-rule="evenodd" d="M240.958 777.507C227.904 774.014 222.969 770.517 216.696 760.236C214.743 757.031 212.658 753.169 210.567 748.782C205.951 739.093 201.304 726.858 197.968 713.539C195.827 704.988 194.222 695.993 192.917 686.748C191.27 675.07 190.102 662.993 188.938 650.915C186.647 650.267 188.021 648.813 191.988 645.299C198.26 639.75 211.01 629.054 216.458 618.469C221.908 607.879 220.059 597.387 208.851 573.538C197.647 549.688 177.084 512.472 166.493 487.281C155.905 462.097 155.288 448.937 158.886 435.571C162.484 422.205 170.3 408.641 190.859 388.588C211.424 368.543 244.732 342.009 285.854 314.256L287.525 313.135L288.6 315.956C300.68 347.773 302.53 351.372 308.903 353.118C311.527 353.835 314.917 354.247 318.72 354.239C315.62 351.395 312.795 345.456 306.786 331.594C297.773 310.802 281.589 272.191 271.775 236.394C263.188 205.072 259.477 175.9 259.537 150.472C116.823 228.35 20 379.782 20 553.813C20 762.854 159.688 939.273 350.812 994.814C351.419 967.517 352.027 940.221 355.571 914.184C357.924 896.901 361.569 880.171 365.73 864.299C367.836 856.259 370.075 848.434 372.348 840.866C378.471 820.456 384.824 801.924 391.192 783.569C364.864 787.181 330.678 787.575 303.053 786.041C275.194 784.501 254.015 781.004 240.958 777.507Z" fill="#FF3369"/>
<path fill-rule="evenodd" clip-rule="evenodd" d="M348.575 115.902C370.582 108.14 412.664 96.3605 465.729 95.0414C518.789 93.73 582.835 102.88 643.26 126.325C703.685 149.771 760.488 187.512 792.084 211.141C823.688 234.777 830.078 244.308 832.357 249.889C834.645 255.463 832.823 257.087 818 269.858C803.171 282.629 775.348 306.547 754.693 316.924C734.038 327.294 720.543 324.114 711.622 319.616C702.701 315.117 698.348 309.292 685.15 291.428C671.959 273.571 649.909 243.675 637.481 217.866C625.053 192.064 622.247 170.342 616.49 160.712C610.734 151.075 602.026 153.537 562.539 171.211C523.059 188.892 452.794 221.8 415.076 240.229C377.355 258.657 372.179 262.615 364.918 253.412C357.656 244.209 348.307 221.846 340.927 199.277C333.54 176.708 328.126 153.934 326.381 140.675C324.639 127.415 326.572 123.672 348.575 115.902Z" fill="#FF3369"/>
<path fill-rule="evenodd" clip-rule="evenodd" d="M844.25 385.393C846.301 396.518 849.526 417.821 839.363 440.588C829.199 463.355 805.647 487.578 792.967 500.395C780.272 513.212 778.45 514.622 781.081 523.856C783.703 533.089 790.787 550.153 786.761 564.594C782.743 579.042 767.623 590.861 760.662 597.631C753.708 604.394 754.898 606.11 758.649 611.066C762.393 616.014 768.691 624.209 760.662 633.501C752.633 642.794 730.293 653.179 708.8 661.757C687.306 670.332 666.674 677.098 653.819 683.186C640.964 689.277 635.886 694.685 625.92 714.128C615.963 733.574 601.118 767.053 595.521 798.49C589.917 829.923 593.569 859.32 596.878 874.742C600.195 890.164 603.176 891.612 618.281 887.418C633.377 883.224 660.605 873.39 677.821 870.09C695.037 866.787 702.242 870.018 706.848 871.68C711.438 873.339 713.428 873.428 721.548 869.914C729.668 866.399 743.911 859.281 753.937 855.531C763.963 851.781 769.773 851.398 774.867 853.256C779.967 855.115 784.359 859.213 785.442 865.423C786.525 871.638 784.29 879.963 791.846 876.949C799.402 873.932 816.733 859.579 835.947 838.662C855.169 817.745 876.266 790.267 893.543 745.63C910.836 700.997 924.301 639.205 930.782 588.116C937.263 537.039 936.752 496.659 927.808 456.615C918.872 416.57 901.503 376.854 891.995 355.497C882.488 334.141 880.833 331.144 875.557 335.605C870.273 340.065 861.375 351.998 854.925 359.371C848.467 366.736 844.464 369.549 842.901 371.433C841.33 373.316 842.207 374.261 844.25 385.393Z" fill="#FF3369"/>
<path fill-rule="evenodd" clip-rule="evenodd" d="M712.41 394.549C698.327 399.589 675.088 400.405 640.03 405.651C604.979 410.889 558.096 420.557 511.83 438.345C465.572 456.133 419.92 482.041 389.285 505.273C358.646 528.505 343.019 549.069 330.783 569.015C318.551 588.961 309.709 608.281 298.71 621.961C287.708 635.635 274.549 643.65 266.222 647.662C257.898 651.671 254.401 651.671 241.856 651.671C229.314 651.671 207.724 651.671 196.829 651.469C192.826 651.391 190.268 651.286 188.939 650.914C190.11 662.992 191.275 675.069 192.922 686.747C194.226 695.992 195.831 704.989 197.973 713.537C201.312 726.857 205.955 739.092 210.571 748.78C212.663 753.168 214.744 757.03 216.701 760.235C222.973 770.516 227.909 774.012 240.963 777.506C254.02 781.003 275.199 784.499 303.058 786.039C324.58 787.233 350.09 787.26 372.758 785.503C379.438 784.985 385.874 784.312 391.885 783.469C418.308 779.77 436.607 772.78 462.415 760.339C488.217 747.901 521.528 730.01 556.891 715.309C583.249 704.352 610.744 695.167 637.605 686.556C646.777 683.617 655.881 680.742 664.84 677.886C700.005 666.682 732.905 655.784 749.45 645.297C764.425 635.812 766.026 626.664 760.407 615.189C759.812 613.977 759.141 612.734 758.394 611.469C750.586 598.209 734.75 581.763 722.932 562.74C720.195 558.348 717.686 553.827 715.383 549.183C707.736 533.744 702.528 517.099 700.005 500.34C697.252 482.156 697.664 463.819 700.874 447.044C701.514 443.72 702.254 440.449 703.115 437.262C708.285 417.987 717.381 401.427 726.485 384.866C723.588 388.915 718.998 392.193 712.41 394.549ZM580.726 547.392C575.899 562.191 565.4 577.989 550.044 590.082C542.915 595.686 534.742 600.497 526.233 604.431C516.42 608.975 506.172 612.353 496.596 614.465C478.724 618.407 463.2 617.927 449.808 615.593C436.414 613.26 425.165 609.074 418.678 605.887C412.2 602.715 410.496 600.542 411.798 593.871C412.033 592.666 412.366 591.317 412.819 589.822C414.877 583.044 419.399 573.338 428.411 561.116C439.407 546.202 457.087 527.552 476.696 515.223C477.1 514.972 477.512 514.713 477.923 514.461C492.403 505.586 507.865 500.104 522.055 497.1C526.751 496.109 531.311 495.384 535.649 494.896C553.445 492.914 567.512 494.957 574.923 497.306C582.342 499.669 583.105 502.346 583.905 510.58C584.706 518.807 585.552 532.6 580.726 547.392Z" fill="#FFD27F"/>
<path fill-rule="evenodd" clip-rule="evenodd" d="M563.845 712.873C531.059 726.502 500.18 743.086 476.254 754.618C452.334 766.15 435.367 772.631 410.873 776.059C405.301 776.839 399.335 777.465 393.143 777.945C386.12 798.155 379.097 818.369 372.345 840.865C365.593 863.364 359.112 888.143 355.568 914.183C352.024 940.22 351.416 967.516 350.809 994.813C391.549 1006.65 434.626 1013 479.181 1013C536.305 1013 590.988 1002.57 641.44 983.51C632.092 972.753 622.745 961.997 614.93 947.469C607.114 932.941 600.824 914.642 597.675 892.245C597.515 891.08 597.355 889.901 597.21 888.715C594.534 867.092 594.641 842.006 596.631 817.521C598.727 791.693 602.921 766.531 610.271 744.759C617.629 722.987 628.151 704.602 638.665 686.22C613.771 694.199 588.274 702.714 563.845 712.873Z" fill="#FFE3BA"/>
<path fill-rule="evenodd" clip-rule="evenodd" d="M406.612 241.654C441.625 222.242 508.845 185.133 548.745 166.964C588.644 148.794 601.217 149.557 608.193 152.279C615.17 154.993 616.542 159.667 620.278 172.705C624.022 185.743 630.122 207.153 645.737 233.031C661.36 258.909 686.49 289.262 701.953 310.336C717.416 331.411 723.21 343.206 726.321 352.325C729.44 361.444 729.874 367.879 726.969 375.694C724.072 383.525 717.827 392.728 691.073 399.521C664.318 406.315 617.038 410.699 565.953 424.423C514.869 438.155 459.975 461.212 415.753 492.953C371.533 524.686 337.982 565.104 317.869 592.835C297.762 620.565 291.091 635.63 276.223 644.3C261.355 652.973 238.291 655.263 222.559 655.335C206.824 655.41 198.425 653.268 194.068 651.674C189.711 650.084 189.404 649.042 196.462 643.058C203.524 637.075 217.951 626.153 215.828 599.346C213.701 572.531 195.021 529.84 182.458 502.857C169.898 475.874 163.462 464.62 158.98 451.94C154.503 439.268 151.983 425.17 169.976 403.257C187.968 381.344 226.476 351.608 250.204 333.881C273.935 316.154 282.894 310.435 289.089 311.579C295.284 312.723 298.715 320.729 303.481 331.403C308.246 342.077 314.349 355.421 326.67 357.891C338.995 360.361 357.538 351.951 371.357 343.092C385.177 334.224 394.27 324.907 395.869 317.9C397.465 310.893 391.565 306.189 385.334 297.68C379.101 289.171 372.537 276.842 370.66 269.812C368.784 262.789 371.599 261.066 406.612 241.654Z" fill="#FFE3BA"/>
<path fill-rule="evenodd" clip-rule="evenodd" d="M563.848 712.875C531.063 726.504 500.183 743.087 476.257 754.619C452.338 766.152 435.37 772.632 410.876 776.061C405.304 776.841 399.338 777.466 393.146 777.946C386.123 798.157 379.1 818.371 372.349 840.866C370.076 848.435 367.836 856.259 365.73 864.3C388.795 864.178 421.032 861.328 449.896 851.603C485.544 839.595 516.042 817.102 552.831 799.566C568.553 792.066 585.434 785.478 601.651 778.699C603.862 766.792 606.691 755.373 610.275 744.761C617.632 722.989 628.154 704.604 638.669 686.222C613.774 694.201 588.278 702.716 563.848 712.875Z" fill="#F0C87F"/>
<path fill-rule="evenodd" clip-rule="evenodd" d="M523.421 1010.89C564.586 1006.96 604.173 997.59 641.442 983.511C632.094 972.753 622.746 961.998 614.931 947.469C607.116 932.942 600.825 914.643 597.676 892.245C597.516 891.08 597.356 889.902 597.211 888.716C594.535 867.093 594.642 842.006 596.632 817.521C598.729 791.693 602.922 766.532 610.272 744.76C617.63 722.988 628.152 704.603 638.666 686.221C622.563 691.379 606.216 696.77 590.06 702.676C573.834 738.371 557.579 777.805 545.966 810.236C524.808 869.33 519.09 905.162 519.09 949.769C519.09 969.432 520.203 990.796 523.421 1010.89Z" fill="#F0C87F"/>
<path fill-rule="evenodd" clip-rule="evenodd" d="M716.858 570.244C726.991 586.545 740.563 600.636 747.258 612.004C747.898 613.094 748.478 614.146 748.981 615.191C759.327 604.555 769.674 593.918 777.047 582.253C784.427 570.595 788.834 557.907 788.27 546.699C787.698 535.491 782.171 525.762 776.635 516.026C772.647 519.053 768.713 521.927 764.893 524.634C744.482 539.12 727.441 548.872 710.4 558.624C712.368 562.597 714.525 566.477 716.858 570.244Z" fill="#70CC81"/>
<path fill-rule="evenodd" clip-rule="evenodd" d="M710.398 558.624C727.439 548.872 744.48 539.12 764.891 524.633C768.711 521.926 772.645 519.052 776.633 516.025C793.925 502.903 812.026 487.006 824.774 469.896C840.458 448.837 848.037 425.925 850.355 409.212C852.673 392.499 849.737 381.97 846.794 371.448C836.249 382.328 824.393 392.674 811.736 402.579C788.649 420.641 762.924 437.21 743.519 448.372C724.122 459.542 711.039 465.314 697.955 471.093C695.202 485.466 694.859 501.172 697.207 516.765C699.38 531.129 703.841 545.387 710.398 558.624Z" fill="#91F7A4"/>
<path fill-rule="evenodd" clip-rule="evenodd" d="M710.397 558.624C727.438 548.872 744.479 539.12 764.89 524.633C768.71 521.926 772.644 519.052 776.632 516.025C793.924 502.903 812.025 487.006 824.773 469.896C837.514 452.787 844.902 434.465 848.47 419.231C843.057 427.557 832.375 441.418 817.781 454.449C801.389 469.073 780.07 482.645 758.912 488.325C737.761 494.005 716.779 491.794 696.604 485.107L696.086 484.932C695.254 495.286 695.59 506.052 697.206 516.765C699.379 531.129 703.84 545.387 710.397 558.624Z" fill="#83DE93"/>
<path fill-rule="evenodd" clip-rule="evenodd" d="M743.521 448.372C762.926 437.21 788.651 420.641 811.739 402.579C824.395 392.674 836.252 382.328 846.796 371.448C854.33 363.678 861.192 355.642 867.192 347.308C868.107 346.035 869.007 344.746 869.891 343.458C884.515 321.964 893.322 298.526 897.553 275.263C901.785 252.001 901.427 228.921 899.231 215.967C897.027 203.021 892.971 200.199 883.722 207.511C874.466 214.823 860.017 232.268 838.783 251.742C831.319 258.589 823.015 265.687 814.186 272.618C797.915 285.397 784.702 295.164 762.026 306.646C739.358 318.137 733.259 318.96 706.268 325.334C714.487 335.665 719.397 341.567 728.997 355.009C738.596 368.451 722.44 395.808 723.171 403.631C723.919 411.461 722.737 413.863 719.908 417.805C712.108 431.994 704.308 446.184 699.878 462.706C699.146 465.443 698.506 468.242 697.957 471.093C711.041 465.314 724.125 459.542 743.521 448.372Z" fill="#C7FFD1"/>
<path fill-rule="evenodd" clip-rule="evenodd" d="M743.527 448.372C762.931 437.21 788.657 420.642 811.744 402.579C824.401 392.675 836.257 382.328 846.802 371.448C854.335 363.679 861.197 355.642 867.198 347.309C868.113 346.035 869.012 344.747 869.897 343.458C884.521 321.964 893.327 298.526 897.559 275.264C899.998 261.845 900.913 248.494 900.83 237.103C900.166 237.781 899.48 238.628 898.771 239.68C892.603 248.845 884.887 272.61 866.755 295.774C848.624 318.945 820.078 341.499 790.693 352.051C761.315 362.611 745.326 361.185 733.767 361.132C722.201 361.079 727.134 361.14 724.282 361.246L725.586 363.069C738.357 380.956 722.445 395.809 723.177 403.631C723.924 411.462 722.742 413.864 719.913 417.806C712.114 431.995 704.314 446.184 699.884 462.707C699.403 464.491 698.969 466.305 698.572 468.143C699.693 468.547 700.844 468.928 702.034 469.287C713.821 464.064 726.135 458.384 743.527 448.372Z" fill="#91F7A4"/>
<path fill-rule="evenodd" clip-rule="evenodd" d="M615.906 886.333C629.721 879.715 658.779 871.635 675.324 868.903C691.877 866.175 695.903 868.793 698.373 871.402C700.843 874.014 701.751 876.611 709.459 873.249C717.168 869.886 731.677 860.561 743.831 855.861C755.984 851.161 765.782 851.087 772.88 853.1C779.971 855.114 784.363 859.212 783.555 868.808C782.747 878.404 776.739 893.501 764.036 907.842C751.333 922.186 731.944 935.777 710.397 948.259C688.85 960.744 665.145 972.127 652.923 977.39C640.701 982.653 639.954 981.792 633.961 972.139C627.968 962.486 616.722 944.038 611.011 931.094C605.3 918.153 605.124 910.716 604.324 904.414C603.523 898.115 602.09 892.956 615.906 886.333Z" fill="#FFD27F"/>
<path fill-rule="evenodd" clip-rule="evenodd" d="M550.041 590.083C565.397 577.991 575.896 562.192 580.722 547.393C585.548 532.601 584.702 518.809 583.901 510.582C583.101 502.347 582.338 499.671 574.92 497.307C567.509 494.959 553.441 492.915 535.645 494.898C531.307 495.386 526.748 496.11 522.051 497.101C529.957 507.905 535.729 520.532 538.596 534.5C543.75 559.524 538.672 584.281 526.229 604.433C534.738 600.498 542.912 595.687 550.041 590.083Z" fill="white"/>
<path fill-rule="evenodd" clip-rule="evenodd" d="M481.734 560.421C481.734 585.796 464.723 607.206 441.488 613.862C444.142 614.51 446.921 615.09 449.798 615.593C463.191 617.926 478.715 618.406 496.587 614.464C506.163 612.352 516.41 608.975 526.223 604.431C538.667 584.279 543.745 559.522 538.59 534.498C535.724 520.53 529.952 507.903 522.045 497.099C507.459 500.195 491.516 505.898 476.686 515.223C473.24 517.388 469.855 519.752 466.561 522.253C475.962 532.211 481.734 545.637 481.734 560.421Z" fill="#91F7A4"/>
<path d="M411.796 593.873C413.098 587.202 417.41 576.032 428.406 561.118C439.402 546.205 457.082 527.555 476.691 515.226C491.521 505.901 507.464 500.198 522.05 497.102C529.957 507.899 535.721 520.533 538.603 534.501C543.75 559.525 538.672 584.282 526.236 604.433C516.423 608.97 506.168 612.355 496.591 614.467C478.719 618.409 463.196 617.929 449.803 615.596C436.409 613.263 425.16 609.077 418.677 605.89C412.199 602.718 410.492 600.545 411.796 593.873V593.873Z" stroke="#0F172A" stroke-width="21.4771" stroke-miterlimit="22.9256" stroke-linecap="round"/>
<path d="M411.795 593.873C413.1 587.201 417.415 576.031 428.408 561.117C437.475 548.827 451.08 533.997 466.568 522.255C475.969 532.213 481.741 545.639 481.741 560.424C481.741 585.798 464.73 607.208 441.495 613.864C431.798 611.508 423.768 608.39 418.675 605.889C412.198 602.717 410.493 600.544 411.795 593.873V593.873Z" stroke="#0F172A" stroke-width="21.4771" stroke-miterlimit="22.9256" stroke-linecap="round"/>
<path fill-rule="evenodd" clip-rule="evenodd" d="M490.779 535.473C499.417 535.473 506.424 542.473 506.424 551.111C506.424 559.75 499.417 566.757 490.779 566.757C482.14 566.757 475.141 559.75 475.141 551.111C475.141 542.473 482.14 535.473 490.779 535.473Z" fill="white"/>
<path d="M269.758 855.15C269.758 866.638 269.758 878.122 269.758 889.61" stroke="white" stroke-width="16.1078" stroke-miterlimit="22.9256" stroke-linecap="round"/>
<path d="M256.958 872.379C265.491 872.379 274.024 872.379 282.557 872.379" stroke="white" stroke-width="16.1078" stroke-miterlimit="22.9256" stroke-linecap="round"/>
<path d="M118.922 684.268C118.922 702.555 118.922 720.842 118.922 739.126" stroke="white" stroke-width="16.1078" stroke-miterlimit="22.9256" stroke-linecap="round"/>
<path d="M98.5508 711.698C112.132 711.698 125.716 711.698 139.298 711.698" stroke="white" stroke-width="16.1078" stroke-miterlimit="22.9256" stroke-linecap="round"/>
<path d="M697.611 752.297C697.611 761.443 697.611 770.587 697.611 779.736" stroke="white" stroke-width="16.1078" stroke-miterlimit="22.9256" stroke-linecap="round"/>
<path d="M687.414 766.015C694.208 766.015 701.001 766.015 707.795 766.015" stroke="white" stroke-width="16.1078" stroke-miterlimit="22.9256" stroke-linecap="round"/>
<path d="M819.664 712.195C819.664 723.683 819.664 735.173 819.664 746.657" stroke="white" stroke-width="16.1078" stroke-miterlimit="22.9256" stroke-linecap="round"/>
<path d="M806.877 729.426C815.409 729.426 823.948 729.426 832.473 729.426" stroke="white" stroke-width="16.1078" stroke-miterlimit="22.9256" stroke-linecap="round"/>
<path d="M865.455 538.295C865.455 546.133 865.455 553.971 865.455 561.801" stroke="white" stroke-width="16.1078" stroke-miterlimit="22.9256" stroke-linecap="round"/>
<path d="M856.723 550.052C862.54 550.052 868.365 550.052 874.183 550.052" stroke="white" stroke-width="16.1078" stroke-miterlimit="22.9256" stroke-linecap="round"/>
<path d="M90.2188 475.806C90.2188 484.948 90.2188 494.097 90.2188 503.247" stroke="white" stroke-width="16.1078" stroke-miterlimit="22.9256" stroke-linecap="round"/>
<path d="M80.0332 489.523C86.8267 489.523 93.6202 489.523 100.414 489.523" stroke="white" stroke-width="16.1078" stroke-miterlimit="22.9256" stroke-linecap="round"/>
<path d="M194.423 268.873C194.423 281.408 194.423 293.95 194.423 306.485" stroke="white" stroke-width="16.1078" stroke-miterlimit="22.9256" stroke-linecap="round"/>
<path d="M180.462 287.677C189.772 287.677 199.086 287.677 208.396 287.677" stroke="white" stroke-width="16.1078" stroke-miterlimit="22.9256" stroke-linecap="round"/>
<path d="M402.5 149.853C402.5 165.194 402.5 180.534 402.5 195.875" stroke="white" stroke-width="16.1078" stroke-miterlimit="22.9256" stroke-linecap="round"/>
<path d="M385.4 172.864C396.795 172.864 408.191 172.864 419.589 172.864" stroke="white" stroke-width="16.1078" stroke-miterlimit="22.9256" stroke-linecap="round"/>
<path d="M140.758 579.879C140.758 589.021 140.758 598.171 140.758 607.32" stroke="white" stroke-width="16.1078" stroke-miterlimit="22.9256" stroke-linecap="round"/>
<path d="M130.561 593.597C137.357 593.597 144.151 593.597 150.944 593.597" stroke="white" stroke-width="16.1078" stroke-miterlimit="22.9256" stroke-linecap="round"/>
<path d="M727.072 231.787C727.072 239.625 727.072 247.463 727.072 255.301" stroke="white" stroke-width="16.1078" stroke-miterlimit="22.9256" stroke-linecap="round"/>
<path d="M718.34 243.543C724.157 243.543 729.982 243.543 735.8 243.543" stroke="white" stroke-width="16.1078" stroke-miterlimit="22.9256" stroke-linecap="round"/>
<path fill-rule="evenodd" clip-rule="evenodd" d="M351.541 355.352C361.845 352.554 371.591 347.049 379.078 341.369C386.56 335.696 391.793 329.855 394.354 326.386C396.921 322.909 396.815 321.804 388.576 306.783C384.573 299.479 378.65 288.896 372.225 276.666C365.432 263.735 358.078 248.959 351.847 234.304C341.727 210.485 334.576 186.978 329.197 163.655C328.139 159.057 327.148 154.467 326.216 149.885C320.56 122.047 317.105 94.4464 315.08 75.0342C313.048 55.622 312.452 44.3987 310.921 37.9406C309.391 31.4826 306.934 29.7899 300.473 35.3788C294.014 40.9676 283.551 53.8455 275.312 71.5956C267.08 89.3532 261.073 111.998 259.792 139.805C259.021 156.61 259.971 175.298 263.012 195.35C265.005 208.487 267.888 222.219 271.775 236.393C281.588 272.191 297.772 310.802 306.788 331.594C312.619 345.044 315.452 351.036 318.445 353.98C320.077 355.581 321.76 356.282 324.006 356.785C330.362 358.227 341.235 358.143 351.541 355.352Z" fill="white"/>
<path fill-rule="evenodd" clip-rule="evenodd" d="M363.008 351.098C368.956 348.323 374.445 344.876 379.073 341.369C386.555 335.696 391.788 329.856 394.349 326.387C396.916 322.91 396.809 321.804 388.571 306.784C384.568 299.48 378.644 288.897 372.22 276.667C365.426 263.736 358.072 248.959 351.842 234.305C341.722 210.486 334.57 186.979 329.191 163.655C328.134 159.058 327.143 154.468 326.21 149.885C320.554 122.048 317.1 94.447 315.074 75.0349C313.042 55.6227 312.447 44.3993 310.916 37.9413C309.984 34.007 308.706 31.8416 306.392 32.0094C302.115 48.265 298.088 67.5703 296.483 88.1491C293.66 124.427 298.371 164.631 307.48 201.611C316.587 238.597 330.091 272.359 343.756 305.495C350.317 321.408 356.914 337.176 363.008 351.098Z" fill="#DEDEDE"/>
<path d="M374.413 259.343C390.195 250.285 406.029 241.532 421.462 233.343C467.005 209.188 509.161 189.86 537.738 177.081C566.323 164.31 581.328 158.096 593.329 155.984C605.33 153.879 614.319 155.885 617.918 164.333C621.517 172.788 619.725 187.702 623.659 202.349C627.594 216.996 637.262 231.391 653.395 252.16C669.537 272.93 692.159 300.066 707.065 320.934C721.971 341.803 729.168 356.404 730.297 368.328C731.425 380.261 726.492 389.51 712.41 394.549C698.327 399.589 675.087 400.405 640.029 405.651C604.972 410.889 558.096 420.557 511.83 438.345C465.571 456.133 419.92 482.042 389.284 505.274C358.646 528.506 343.018 549.069 330.783 569.015C318.551 588.961 309.709 608.282 298.71 621.962C287.707 635.636 274.549 643.651 266.222 647.663C257.898 651.671 254.401 651.671 241.856 651.671C229.314 651.671 207.727 651.671 196.829 651.469C185.931 651.263 185.722 650.849 191.992 645.298C198.265 639.749 211.015 629.053 216.462 618.468C221.913 607.878 220.064 597.386 208.855 573.537C197.651 549.687 177.088 512.471 166.498 487.28C155.91 462.096 155.293 448.936 158.891 435.57C162.489 422.204 170.304 408.64 190.864 388.587C211.429 368.542 244.736 342.008 285.858 314.255C286.415 313.881 286.975 313.508 287.529 313.134" stroke="#0F172A" stroke-width="21.4771" stroke-miterlimit="22.9256" stroke-linecap="round"/>
<path d="M188.94 650.915C191.034 672.552 193.126 694.187 197.974 713.538C202.823 732.891 210.433 749.957 216.702 760.235C222.974 770.516 227.91 774.013 240.964 777.506C254.021 781.003 275.2 784.5 303.059 786.04C330.922 787.585 365.465 787.174 391.885 783.47C418.309 779.77 436.608 772.78 462.416 760.34C488.218 747.902 521.529 730.011 556.892 715.31C592.255 700.609 629.684 689.094 664.841 677.887C700.006 666.682 732.906 655.784 749.451 645.298C766.004 634.814 766.21 624.735 758.395 611.469C750.587 598.21 734.751 581.763 722.933 562.74C711.107 543.724 703.292 522.132 700.006 500.341C696.712 478.542 697.947 456.545 703.116 437.262C708.286 417.987 717.382 401.427 726.486 384.866" stroke="#0F172A" stroke-width="21.4771" stroke-miterlimit="22.9256" stroke-linecap="round"/>
<path d="M638.67 686.22C628.156 704.603 617.634 722.988 610.276 744.76C602.926 766.532 598.732 791.693 596.635 817.521C594.539 843.349 594.539 869.848 597.68 892.245C600.829 914.642 607.119 932.941 614.934 947.469C622.75 961.998 632.097 972.753 641.445 983.51" stroke="#0F172A" stroke-width="21.4771" stroke-miterlimit="22.9256" stroke-linecap="round"/>
<path d="M393.145 777.945C386.122 798.156 379.099 818.37 372.347 840.866C365.595 863.364 359.114 888.144 355.57 914.183C352.026 940.221 351.418 967.517 350.811 994.813" stroke="#0F172A" stroke-width="21.4771" stroke-miterlimit="22.9256" stroke-linecap="round"/>
<path d="M597.217 888.714C617.674 883.251 638.123 877.783 653.875 873.051C669.635 868.318 680.691 864.315 687.835 863.553C694.987 862.79 698.227 865.268 699.943 871.415C701.658 877.563 701.849 887.379 700.37 896.195C698.898 905.011 695.749 912.826 692.608 920.642" stroke="#0F172A" stroke-width="21.4771" stroke-miterlimit="22.9256" stroke-linecap="round"/>
<path d="M702.652 879.208C725.701 868.906 748.758 858.607 763.428 853.931C778.098 849.255 784.388 850.208 787.148 853.928C789.916 857.645 789.153 864.123 786.828 872.852C784.517 881.585 780.637 892.566 776.763 903.547" stroke="#0F172A" stroke-width="21.4771" stroke-miterlimit="22.9256" stroke-linecap="round"/>
<path d="M710.524 325.873C727.519 321.985 744.522 318.096 767.03 305.401C789.538 292.706 817.558 271.212 838.785 251.739C860.019 232.266 874.468 214.821 883.724 207.509C892.973 200.197 897.029 203.018 899.233 215.965C901.429 228.919 901.787 251.998 897.555 275.261C893.324 298.524 884.517 321.962 869.893 343.455C855.262 364.957 834.82 384.514 811.741 402.576C788.653 420.639 762.928 437.207 743.523 448.37C724.126 459.54 711.043 465.311 697.959 471.091" stroke="#0F172A" stroke-width="21.4771" stroke-miterlimit="22.9256" stroke-linecap="round"/>
<path d="M846.796 371.445C849.739 381.967 852.674 392.497 850.356 409.21C848.038 425.923 840.46 448.835 824.776 469.894C809.1 490.945 785.303 510.159 766.143 523.922C746.975 537.684 732.434 546.002 717.887 554.321" stroke="#0F172A" stroke-width="21.4771" stroke-miterlimit="22.9256" stroke-linecap="round"/>
<path d="M776.634 516.025C782.17 525.761 787.698 535.49 788.27 546.698C788.834 557.907 784.427 570.594 778.236 581.024C772.044 591.462 764.069 599.644 756.094 607.825" stroke="#0F172A" stroke-width="21.4771" stroke-miterlimit="22.9256" stroke-linecap="round"/>
<path d="M411.798 593.87C413.1 587.199 417.412 576.029 428.408 561.115C439.404 546.202 457.084 527.552 476.693 515.223C496.304 502.894 517.843 496.886 535.647 494.896C553.45 492.913 567.51 494.957 574.921 497.313C582.339 499.669 583.102 502.345 583.902 510.58C584.703 518.807 585.549 532.599 580.723 547.391C575.897 562.19 565.398 577.996 550.042 590.081C534.686 602.158 514.465 610.523 496.593 614.464C478.721 618.406 463.198 617.926 449.805 615.593C436.411 613.26 425.162 609.074 418.678 605.887C412.201 602.715 410.494 600.542 411.798 593.87Z" stroke="#0F172A" stroke-width="21.4771" stroke-miterlimit="22.9256" stroke-linecap="round"/>
<path fill-rule="evenodd" clip-rule="evenodd" d="M441.497 613.861C464.732 607.205 481.743 585.795 481.743 560.421C481.743 545.637 475.971 532.21 466.57 522.252C451.082 533.994 437.476 548.824 428.41 561.114C417.417 576.028 413.101 587.198 411.797 593.87C410.495 600.541 412.2 602.714 418.677 605.886C423.77 608.387 431.8 611.505 441.497 613.861Z" fill="#0F172A"/>
<path d="M210.563 748.781C231.373 747.819 252.18 746.86 274.923 751.312C297.666 755.771 322.338 765.641 348.798 770.263C375.254 774.889 403.498 774.266 428.174 769.033C452.856 763.804 473.974 753.96 488.636 739.98C503.306 726 511.517 707.885 519.729 689.768" stroke="#0F172A" stroke-width="21.4771" stroke-miterlimit="22.9256" stroke-linecap="round"/>
<path d="M263.526 706.513C266.201 702.4 268.873 698.287 270.877 693.918C272.882 689.548 274.219 684.92 275.556 680.294" stroke="#0F172A" stroke-width="21.4771" stroke-miterlimit="22.9256" stroke-linecap="round"/>
<path d="M211.644 703.653C207.123 700.616 202.598 697.574 199.474 694.757C196.356 691.94 194.635 689.343 192.916 686.748" stroke="#0F172A" stroke-width="21.4771" stroke-miterlimit="22.9256" stroke-linecap="round"/>
<path d="M324.008 356.785C330.364 358.227 341.237 358.143 351.542 355.352C361.847 352.554 371.593 347.049 379.077 341.369C386.562 335.696 391.795 329.855 394.356 326.379C396.923 322.909 396.816 321.804 388.578 306.783C380.34 291.763 363.968 262.812 351.849 234.304C339.734 205.788 331.876 177.722 326.217 149.885C320.561 122.047 317.107 94.4464 315.082 75.0342C313.053 55.6221 312.454 44.3986 310.923 37.9406C309.393 31.4826 306.936 29.79 300.475 35.3788C294.013 40.9676 283.553 53.8455 275.314 71.5955C267.082 89.3532 261.075 111.998 259.794 139.805C258.513 167.612 261.963 200.588 271.776 236.393C281.593 272.191 297.774 310.802 306.79 331.594C315.805 352.386 317.649 355.352 324.008 356.785V356.785Z" stroke="#0F172A" stroke-width="21.4771" stroke-miterlimit="22.9256" stroke-linecap="round"/>
<path d="M259.538 150.471C116.824 228.349 20.001 379.78 20.001 553.812C20.001 807.415 225.588 1013 479.185 1013C732.787 1013 938.376 807.415 938.376 553.812C938.376 471.794 916.859 394.786 879.179 328.139M830.999 258.702C746.77 158.393 620.423 94.6285 479.185 94.6285C423.701 94.6285 370.514 104.464 321.279 122.504" stroke="#0F172A" stroke-width="21.4771" stroke-miterlimit="22.9256" stroke-linecap="round"/>
</svg>
