<svg width="60" height="60" viewBox="0 0 60 60" fill="none" xmlns="http://www.w3.org/2000/svg">
<path fill-rule="evenodd" clip-rule="evenodd" d="M23.3776 0H28.9505L38.8661 25.2593H22.7262L26.2002 16.4294L27.7201 20.4825H31.7732L26.2002 6.07961L13.2449 39.0832H8.10615L23.3776 0ZM38.2147 0L53.4861 39.0832H48.3474L33.0036 0H38.2147ZM37.0567 33.8721L39.0832 39.0832H44.2219L40.3136 29.0229H21.2786L17.2979 39.0832H22.509L24.5356 33.8721H37.0567ZM0 59.7829L4.92159 46.3209H7.38239L12.304 59.7829H9.4813L8.61278 57.2497H3.61882L2.82268 59.7829H0ZM6.15199 49.8673L4.41496 55.006H7.88902L6.15199 49.8673ZM29.6743 46.3209H24.3908V59.7829H29.7467C33.5826 59.7829 35.392 57.1049 35.392 53.0519C35.4644 48.9988 33.5102 46.3209 29.6743 46.3209ZM29.6743 57.5392H27.0687V48.5645H29.6743C31.5561 48.5645 32.7141 50.0844 32.7141 53.0519C32.7141 55.9469 31.5561 57.5392 29.6743 57.5392ZM35.4644 59.7829L40.3136 46.3209H42.8468L47.7684 59.7829H45.0181L44.1496 57.2497H39.1556L38.2871 59.7829H35.4644ZM41.6164 49.8673L39.8794 55.006H43.3534L41.6164 49.8673ZM53.5585 46.1037C49.7949 46.1037 47.696 48.9988 47.696 53.0519C47.696 57.105 49.7225 60 53.5585 60C57.3944 60 59.421 57.105 59.421 53.0519C59.3486 48.9988 57.3944 46.1037 53.5585 46.1037ZM53.5585 57.7563C51.4596 57.7563 50.5187 56.0193 50.5187 53.0519C50.5187 50.0844 51.4596 48.3474 53.5585 48.3474C55.6574 48.3474 56.6707 50.0844 56.6707 53.0519C56.6707 56.0193 55.6574 57.7563 53.5585 57.7563ZM16.8715 57.4668L19.7587 54.8613L19.8086 54.8167C21.16 53.6079 22.2195 52.6602 22.2195 50.2292C22.2195 47.9132 20.2654 46.1037 17.5151 46.1037C15.2714 46.1037 13.0277 47.4789 13.0277 50.4463V51.0253H15.7057C15.6333 49.2883 16.5742 48.3474 17.5151 48.3474C18.8902 48.3474 19.4692 49.2883 19.4692 50.2292C19.4692 51.3872 18.456 52.4005 17.7322 53.0519L13.0277 57.8287V59.7105H22.4367V57.4668H16.8715Z" fill="white"/>
</svg>
