<svg width="171" height="120" viewBox="0 0 171 120" fill="none" xmlns="http://www.w3.org/2000/svg">
<path d="M24.4326 88.3953C24.6094 89.1023 24.6978 89.986 24.6978 91.0465C24.6978 92.0628 24.6094 92.9465 24.4326 93.6977H21.7815C21.9582 94.4047 22.0466 95.2884 22.0466 96.3488C22.0466 97.3651 21.9582 98.2488 21.7815 99H8.52566C8.34892 98.2488 8.26055 97.3651 8.26055 96.3488C8.26055 95.2884 8.34892 94.4047 8.52566 93.6977H5.8745C5.69776 92.9465 5.60938 92.0628 5.60938 91.0465C5.60938 89.986 5.69776 89.1023 5.8745 88.3953H3.22334C3.04659 87.6442 2.95822 86.7605 2.95822 85.7442C2.95822 84.6837 3.04659 83.8 3.22334 83.093C3.04659 82.3419 2.95822 81.4581 2.95822 80.4419C2.95822 79.3814 3.04659 78.4977 3.22334 77.7907C3.04659 77.0395 2.95822 76.1558 2.95822 75.1395C2.95822 74.0791 3.04659 73.1953 3.22334 72.4884H5.8745C5.69776 71.7372 5.60938 70.8535 5.60938 69.8372C5.60938 68.7767 5.69776 67.893 5.8745 67.186H8.52566C8.34892 66.4349 8.26055 65.5512 8.26055 64.5349C8.26055 63.4744 8.34892 62.5907 8.52566 61.8837H21.7815C21.9582 62.5907 22.0466 63.4744 22.0466 64.5349C22.0466 65.5512 21.9582 66.4349 21.7815 67.186H24.4326C24.6094 67.893 24.6978 68.7767 24.6978 69.8372C24.6978 70.8535 24.6094 71.7372 24.4326 72.4884H19.1303C18.9536 71.7372 18.8652 70.8535 18.8652 69.8372C18.8652 68.7767 18.9536 67.893 19.1303 67.186H11.1768C11.3536 67.893 11.4419 68.7767 11.4419 69.8372C11.4419 70.8535 11.3536 71.7372 11.1768 72.4884H8.52566C8.70241 73.1953 8.79078 74.0791 8.79078 75.1395C8.79078 76.1558 8.70241 77.0395 8.52566 77.7907C8.70241 78.4977 8.79078 79.3814 8.79078 80.4419C8.79078 81.4581 8.70241 82.3419 8.52566 83.093C8.70241 83.8 8.79078 84.6837 8.79078 85.7442C8.79078 86.7605 8.70241 87.6442 8.52566 88.3953H11.1768C11.3536 89.1023 11.4419 89.986 11.4419 91.0465C11.4419 92.0628 11.3536 92.9465 11.1768 93.6977H19.1303C18.9536 92.9465 18.8652 92.0628 18.8652 91.0465C18.8652 89.986 18.9536 89.1023 19.1303 88.3953H24.4326ZM48.319 67.186C48.4957 67.893 48.5841 68.7767 48.5841 69.8372C48.5841 70.8535 48.4957 71.7372 48.319 72.4884C48.4957 73.1953 48.5841 74.0791 48.5841 75.1395C48.5841 76.1558 48.4957 77.0395 48.319 77.7907C48.4957 78.4977 48.5841 79.3814 48.5841 80.4419C48.5841 81.4581 48.4957 82.3419 48.319 83.093C48.4957 83.8 48.5841 84.6837 48.5841 85.7442C48.5841 86.7605 48.4957 87.6442 48.319 88.3953C48.4957 89.1023 48.5841 89.986 48.5841 91.0465C48.5841 92.0628 48.4957 92.9465 48.319 93.6977C48.4957 94.4047 48.5841 95.2884 48.5841 96.3488C48.5841 97.3651 48.4957 98.2488 48.319 99H43.0167C42.8399 98.2488 42.7516 97.3651 42.7516 96.3488C42.7516 95.2884 42.8399 94.4047 43.0167 93.6977C42.8399 92.9465 42.7516 92.0628 42.7516 91.0465C42.7516 89.986 42.8399 89.1023 43.0167 88.3953C42.8399 87.6442 42.7516 86.7605 42.7516 85.7442C42.7516 84.6837 42.8399 83.8 43.0167 83.093H32.412C32.5888 83.8 32.6771 84.6837 32.6771 85.7442C32.6771 86.7605 32.5888 87.6442 32.412 88.3953C32.5888 89.1023 32.6771 89.986 32.6771 91.0465C32.6771 92.0628 32.5888 92.9465 32.412 93.6977C32.5888 94.4047 32.6771 95.2884 32.6771 96.3488C32.6771 97.3651 32.5888 98.2488 32.412 99H27.1097C26.9329 98.2488 26.8446 97.3651 26.8446 96.3488C26.8446 95.2884 26.9329 94.4047 27.1097 93.6977C26.9329 92.9465 26.8446 92.0628 26.8446 91.0465C26.8446 89.986 26.9329 89.1023 27.1097 88.3953C26.9329 87.6442 26.8446 86.7605 26.8446 85.7442C26.8446 84.6837 26.9329 83.8 27.1097 83.093C26.9329 82.3419 26.8446 81.4581 26.8446 80.4419C26.8446 79.3814 26.9329 78.4977 27.1097 77.7907C26.9329 77.0395 26.8446 76.1558 26.8446 75.1395C26.8446 74.0791 26.9329 73.1953 27.1097 72.4884C26.9329 71.7372 26.8446 70.8535 26.8446 69.8372C26.8446 68.7767 26.9329 67.893 27.1097 67.186C26.9329 66.4349 26.8446 65.5512 26.8446 64.5349C26.8446 63.4744 26.9329 62.5907 27.1097 61.8837H32.412C32.5888 62.5907 32.6771 63.4744 32.6771 64.5349C32.6771 65.5512 32.5888 66.4349 32.412 67.186C32.5888 67.893 32.6771 68.7767 32.6771 69.8372C32.6771 70.8535 32.5888 71.7372 32.412 72.4884C32.5888 73.1953 32.6771 74.0791 32.6771 75.1395C32.6771 76.1558 32.5888 77.0395 32.412 77.7907H43.0167C42.8399 77.0395 42.7516 76.1558 42.7516 75.1395C42.7516 74.0791 42.8399 73.1953 43.0167 72.4884C42.8399 71.7372 42.7516 70.8535 42.7516 69.8372C42.7516 68.7767 42.8399 67.893 43.0167 67.186C42.8399 66.4349 42.7516 65.5512 42.7516 64.5349C42.7516 63.4744 42.8399 62.5907 43.0167 61.8837H48.319C48.4957 62.5907 48.5841 63.4744 48.5841 64.5349C48.5841 65.5512 48.4957 66.4349 48.319 67.186ZM72.4705 91.0465C72.4705 92.0628 72.3821 92.9465 72.2053 93.6977C72.3821 94.4047 72.4705 95.2884 72.4705 96.3488C72.4705 97.3651 72.3821 98.2488 72.2053 99H66.903C66.7263 98.2488 66.6379 97.3651 66.6379 96.3488C66.6379 95.2884 66.7263 94.4047 66.903 93.6977C66.7263 92.9465 66.6379 92.0628 66.6379 91.0465C66.6379 89.986 66.7263 89.1023 66.903 88.3953H56.2984C56.4751 89.1023 56.5635 89.986 56.5635 91.0465C56.5635 92.0628 56.4751 92.9465 56.2984 93.6977C56.4751 94.4047 56.5635 95.2884 56.5635 96.3488C56.5635 97.3651 56.4751 98.2488 56.2984 99H50.996C50.8193 98.2488 50.7309 97.3651 50.7309 96.3488C50.7309 95.2884 50.8193 94.4047 50.996 93.6977C50.8193 92.9465 50.7309 92.0628 50.7309 91.0465C50.7309 89.986 50.8193 89.1023 50.996 88.3953H52.9844C52.8077 87.6442 52.7193 86.7605 52.7193 85.7442C52.7193 84.6837 52.8077 83.8 52.9844 83.093C52.8077 82.3419 52.7193 81.4581 52.7193 80.4419C52.7193 79.3814 52.8077 78.4977 52.9844 77.7907H54.31C54.1333 77.0395 54.0449 76.1558 54.0449 75.1395C54.0449 74.0791 54.1333 73.1953 54.31 72.4884H56.2984C56.1216 71.7372 56.0333 70.8535 56.0333 69.8372C56.0333 68.7767 56.1216 67.893 56.2984 67.186H57.624C57.4472 66.4349 57.3588 65.5512 57.3588 64.5349C57.3588 63.4744 57.4472 62.5907 57.624 61.8837H65.5774C65.7542 62.5907 65.8426 63.4744 65.8426 64.5349C65.8426 65.5512 65.7542 66.4349 65.5774 67.186H66.903C67.0798 67.893 67.1681 68.7767 67.1681 69.8372C67.1681 70.8535 67.0798 71.7372 66.903 72.4884H68.8914C69.0681 73.1953 69.1565 74.0791 69.1565 75.1395C69.1565 76.1558 69.0681 77.0395 68.8914 77.7907H70.217C70.3937 78.4977 70.4821 79.3814 70.4821 80.4419C70.4821 81.4581 70.3937 82.3419 70.217 83.093C70.3937 83.8 70.4821 84.6837 70.4821 85.7442C70.4821 86.7605 70.3937 87.6442 70.217 88.3953H72.2053C72.3821 89.1023 72.4705 89.986 72.4705 91.0465ZM64.9146 83.093C64.7379 82.3419 64.6495 81.4581 64.6495 80.4419C64.6495 79.3814 64.7379 78.4977 64.9146 77.7907H63.5891C63.4123 77.0395 63.324 76.1558 63.324 75.1395C63.324 74.0791 63.4123 73.1953 63.5891 72.4884H59.6123C59.7891 73.1953 59.8774 74.0791 59.8774 75.1395C59.8774 76.1558 59.7891 77.0395 59.6123 77.7907H58.2867C58.4635 78.4977 58.5519 79.3814 58.5519 80.4419C58.5519 81.4581 58.4635 82.3419 58.2867 83.093H64.9146ZM96.0917 93.6977C96.2684 94.4047 96.3568 95.2884 96.3568 96.3488C96.3568 97.3651 96.2684 98.2488 96.0917 99H90.7894C90.6126 98.2488 90.5243 97.3651 90.5243 96.3488C90.5243 95.2884 90.6126 94.4047 90.7894 93.6977H88.801C88.6243 92.9465 88.5359 92.0628 88.5359 91.0465C88.5359 89.986 88.6243 89.1023 88.801 88.3953H86.8126C86.6359 87.6442 86.5475 86.7605 86.5475 85.7442C86.5475 84.6837 86.6359 83.8 86.8126 83.093H80.1847C80.3615 83.8 80.4498 84.6837 80.4498 85.7442C80.4498 86.7605 80.3615 87.6442 80.1847 88.3953C80.3615 89.1023 80.4498 89.986 80.4498 91.0465C80.4498 92.0628 80.3615 92.9465 80.1847 93.6977C80.3615 94.4047 80.4498 95.2884 80.4498 96.3488C80.4498 97.3651 80.3615 98.2488 80.1847 99H74.8824C74.7057 98.2488 74.6173 97.3651 74.6173 96.3488C74.6173 95.2884 74.7057 94.4047 74.8824 93.6977C74.7057 92.9465 74.6173 92.0628 74.6173 91.0465C74.6173 89.986 74.7057 89.1023 74.8824 88.3953C74.7057 87.6442 74.6173 86.7605 74.6173 85.7442C74.6173 84.6837 74.7057 83.8 74.8824 83.093C74.7057 82.3419 74.6173 81.4581 74.6173 80.4419C74.6173 79.3814 74.7057 78.4977 74.8824 77.7907C74.7057 77.0395 74.6173 76.1558 74.6173 75.1395C74.6173 74.0791 74.7057 73.1953 74.8824 72.4884C74.7057 71.7372 74.6173 70.8535 74.6173 69.8372C74.6173 68.7767 74.7057 67.893 74.8824 67.186C74.7057 66.4349 74.6173 65.5512 74.6173 64.5349C74.6173 63.4744 74.7057 62.5907 74.8824 61.8837H93.4405C93.6173 62.5907 93.7057 63.4744 93.7057 64.5349C93.7057 65.5512 93.6173 66.4349 93.4405 67.186H96.0917C96.2684 67.893 96.3568 68.7767 96.3568 69.8372C96.3568 70.8535 96.2684 71.7372 96.0917 72.4884H94.7661C94.9429 73.1953 95.0312 74.0791 95.0312 75.1395C95.0312 76.1558 94.9429 77.0395 94.7661 77.7907H90.7894C90.9661 78.4977 91.0545 79.3814 91.0545 80.4419C91.0545 81.4581 90.9661 82.3419 90.7894 83.093H92.115C92.2917 83.8 92.3801 84.6837 92.3801 85.7442C92.3801 86.7605 92.2917 87.6442 92.115 88.3953H94.1033C94.2801 89.1023 94.3684 89.986 94.3684 91.0465C94.3684 92.0628 94.2801 92.9465 94.1033 93.6977H96.0917ZM89.4638 77.7907C89.2871 77.0395 89.1987 76.1558 89.1987 75.1395C89.1987 74.0791 89.2871 73.1953 89.4638 72.4884C89.2871 71.7372 89.1987 70.8535 89.1987 69.8372C89.1987 68.7767 89.2871 67.893 89.4638 67.186H80.1847C80.3615 67.893 80.4498 68.7767 80.4498 69.8372C80.4498 70.8535 80.3615 71.7372 80.1847 72.4884C80.3615 73.1953 80.4498 74.0791 80.4498 75.1395C80.4498 76.1558 80.3615 77.0395 80.1847 77.7907H89.4638ZM119.978 93.6977C120.155 94.4047 120.243 95.2884 120.243 96.3488C120.243 97.3651 120.155 98.2488 119.978 99H101.42C101.243 98.2488 101.155 97.3651 101.155 96.3488C101.155 95.2884 101.243 94.4047 101.42 93.6977C101.243 92.9465 101.155 92.0628 101.155 91.0465C101.155 89.986 101.243 89.1023 101.42 88.3953C101.243 87.6442 101.155 86.7605 101.155 85.7442C101.155 84.6837 101.243 83.8 101.42 83.093C101.243 82.3419 101.155 81.4581 101.155 80.4419C101.155 79.3814 101.243 78.4977 101.42 77.7907C101.243 77.0395 101.155 76.1558 101.155 75.1395C101.155 74.0791 101.243 73.1953 101.42 72.4884C101.243 71.7372 101.155 70.8535 101.155 69.8372C101.155 68.7767 101.243 67.893 101.42 67.186C101.243 66.4349 101.155 65.5512 101.155 64.5349C101.155 63.4744 101.243 62.5907 101.42 61.8837H106.722C106.899 62.5907 106.987 63.4744 106.987 64.5349C106.987 65.5512 106.899 66.4349 106.722 67.186C106.899 67.893 106.987 68.7767 106.987 69.8372C106.987 70.8535 106.899 71.7372 106.722 72.4884C106.899 73.1953 106.987 74.0791 106.987 75.1395C106.987 76.1558 106.899 77.0395 106.722 77.7907C106.899 78.4977 106.987 79.3814 106.987 80.4419C106.987 81.4581 106.899 82.3419 106.722 83.093C106.899 83.8 106.987 84.6837 106.987 85.7442C106.987 86.7605 106.899 87.6442 106.722 88.3953C106.899 89.1023 106.987 89.986 106.987 91.0465C106.987 92.0628 106.899 92.9465 106.722 93.6977H119.978ZM139.888 93.6977C140.064 94.4047 140.153 95.2884 140.153 96.3488C140.153 97.3651 140.064 98.2488 139.888 99H126.632C126.455 98.2488 126.367 97.3651 126.367 96.3488C126.367 95.2884 126.455 94.4047 126.632 93.6977H130.609C130.432 92.9465 130.343 92.0628 130.343 91.0465C130.343 89.986 130.432 89.1023 130.609 88.3953C130.432 87.6442 130.343 86.7605 130.343 85.7442C130.343 84.6837 130.432 83.8 130.609 83.093C130.432 82.3419 130.343 81.4581 130.343 80.4419C130.343 79.3814 130.432 78.4977 130.609 77.7907C130.432 77.0395 130.343 76.1558 130.343 75.1395C130.343 74.0791 130.432 73.1953 130.609 72.4884C130.432 71.7372 130.343 70.8535 130.343 69.8372C130.343 68.7767 130.432 67.893 130.609 67.186H126.632C126.455 66.4349 126.367 65.5512 126.367 64.5349C126.367 63.4744 126.455 62.5907 126.632 61.8837H139.888C140.064 62.5907 140.153 63.4744 140.153 64.5349C140.153 65.5512 140.064 66.4349 139.888 67.186H135.911C136.088 67.893 136.176 68.7767 136.176 69.8372C136.176 70.8535 136.088 71.7372 135.911 72.4884C136.088 73.1953 136.176 74.0791 136.176 75.1395C136.176 76.1558 136.088 77.0395 135.911 77.7907C136.088 78.4977 136.176 79.3814 136.176 80.4419C136.176 81.4581 136.088 82.3419 135.911 83.093C136.088 83.8 136.176 84.6837 136.176 85.7442C136.176 86.7605 136.088 87.6442 135.911 88.3953C136.088 89.1023 136.176 89.986 136.176 91.0465C136.176 92.0628 136.088 92.9465 135.911 93.6977H139.888ZM166.69 75.1395C166.69 76.1558 166.602 77.0395 166.425 77.7907H163.774C163.951 78.4977 164.039 79.3814 164.039 80.4419C164.039 81.4581 163.951 82.3419 163.774 83.093H166.425C166.602 83.8 166.69 84.6837 166.69 85.7442C166.69 86.7605 166.602 87.6442 166.425 88.3953C166.602 89.1023 166.69 89.986 166.69 91.0465C166.69 92.0628 166.602 92.9465 166.425 93.6977H163.774C163.951 94.4047 164.039 95.2884 164.039 96.3488C164.039 97.3651 163.951 98.2488 163.774 99H150.518C150.341 98.2488 150.253 97.3651 150.253 96.3488C150.253 95.2884 150.341 94.4047 150.518 93.6977H147.867C147.69 92.9465 147.602 92.0628 147.602 91.0465C147.602 89.986 147.69 89.1023 147.867 88.3953H153.169C153.346 89.1023 153.434 89.986 153.434 91.0465C153.434 92.0628 153.346 92.9465 153.169 93.6977H161.123C160.946 92.9465 160.858 92.0628 160.858 91.0465C160.858 89.986 160.946 89.1023 161.123 88.3953C160.946 87.6442 160.858 86.7605 160.858 85.7442C160.858 84.6837 160.946 83.8 161.123 83.093H154.495C154.318 82.3419 154.23 81.4581 154.23 80.4419C154.23 79.3814 154.318 78.4977 154.495 77.7907H161.123C160.946 77.0395 160.858 76.1558 160.858 75.1395C160.858 74.0791 160.946 73.1953 161.123 72.4884C160.946 71.7372 160.858 70.8535 160.858 69.8372C160.858 68.7767 160.946 67.893 161.123 67.186H153.169C153.346 67.893 153.434 68.7767 153.434 69.8372C153.434 70.8535 153.346 71.7372 153.169 72.4884H147.867C147.69 71.7372 147.602 70.8535 147.602 69.8372C147.602 68.7767 147.69 67.893 147.867 67.186H150.518C150.341 66.4349 150.253 65.5512 150.253 64.5349C150.253 63.4744 150.341 62.5907 150.518 61.8837H163.774C163.951 62.5907 164.039 63.4744 164.039 64.5349C164.039 65.5512 163.951 66.4349 163.774 67.186H166.425C166.602 67.893 166.69 68.7767 166.69 69.8372C166.69 70.8535 166.602 71.7372 166.425 72.4884C166.602 73.1953 166.69 74.0791 166.69 75.1395Z" fill="black"/>
<rect x="155" y="86" width="4" height="4" fill="#FF2727"/>
<path fill-rule="evenodd" clip-rule="evenodd" d="M119.961 40.187V33.8028V13.1972V6.81297C108.748 2.26305 96.8765 0 85.0054 0C73.1343 0 61.2632 2.26305 50.0503 6.81297V13.1972V33.8028V40.187C61.2632 44.7369 73.1343 47 85.0054 47C96.8765 47 108.748 44.7369 119.961 40.187ZM85.0054 6.40801C94.0086 6.40801 103.012 7.81348 111.71 10.6244C112.838 10.8865 113.661 11.9108 113.661 13.1257V33.9219C113.661 34.9939 112.979 36.0182 111.898 36.3517C103.129 39.1865 94.0557 40.6158 85.0054 40.6158C76.0022 40.6158 66.9989 39.2103 58.3013 36.3994C57.1729 36.1374 56.3502 35.1368 56.3502 33.8981V13.1019C56.3502 12.0299 57.0319 11.0294 58.0897 10.6721C66.8579 7.81348 75.9316 6.40801 85.0054 6.40801ZM125.015 18.3188V28.6812H126.496C126.919 28.6812 127.295 28.5144 127.553 28.2524C127.812 27.9904 127.976 27.6092 127.976 27.1804V19.8196C127.976 19.4146 127.812 19.0335 127.553 18.7476C127.295 18.4617 126.895 18.295 126.496 18.295H125.015V18.3188ZM42.9981 28.6812H44.9962V18.3188H42.9981C42.4574 18.3188 41.9638 18.5332 41.6112 18.9143H41.5877C41.2116 19.2717 41 19.7719 41 20.3198V26.6802C41 27.2281 41.2351 27.7283 41.5877 28.1095C41.9403 28.443 42.4339 28.6812 42.9981 28.6812ZM96.6885 18.7714C94.1027 18.7714 92.0105 20.8915 92.0105 23.5119C92.0105 26.1323 94.1027 28.2524 96.6885 28.2524C99.2742 28.2524 101.366 26.1323 101.366 23.5119C101.366 20.8915 99.2742 18.7714 96.6885 18.7714ZM73.3223 18.7714C70.7366 18.7714 68.6444 20.8915 68.6444 23.5119C68.6444 26.1323 70.7366 28.2524 73.3223 28.2524C75.9081 28.2524 78.0003 26.1323 78.0003 23.5119C78.0003 20.8915 75.9081 18.7714 73.3223 18.7714Z" fill="#E52F2F"/>
</svg>
