<?xml version="1.0" encoding="UTF-8" standalone="no"?>
<svg xmlns="http://www.w3.org/2000/svg" viewBox="0 0 126.97 26.51"><defs><style>.cls-1{fill:#fff;}.cls-2{opacity:0.5;}</style></defs><title>Wordmark (Fi) White210118 Totem Delivery Assets SVG</title><g  data-name="Layer 2"><g  data-name="Asset Bank"><path class="cls-1" d="M5,26.15V13H0V8.34H15V13H10V26.15Z"/><path class="cls-1" d="M37,10.59A9.09,9.09,0,0,0,30.33,8,9,9,0,0,0,21,17.26a8.88,8.88,0,0,0,2.65,6.63,9.14,9.14,0,0,0,6.69,2.62A9.11,9.11,0,0,0,37,23.89a8.87,8.87,0,0,0,2.63-6.63A9,9,0,0,0,37,10.59ZM34.12,21a5.17,5.17,0,0,1-3.79,1.47A5.14,5.14,0,0,1,26.54,21a4.94,4.94,0,0,1-1.46-3.72,5,5,0,0,1,1.46-3.76,5.13,5.13,0,0,1,3.79-1.45,5.16,5.16,0,0,1,3.79,1.45,5,5,0,0,1,1.45,3.76A4.93,4.93,0,0,1,34.12,21Z"/><path class="cls-1" d="M50.62,26.15V13h-5V8.34h15V13h-5V26.15Z"/><path class="cls-1" d="M68.14,26.15V8.34H81.47v4.33H73.16V15H80v4.33H73.16v2.46h8.51v4.33Z"/><path class="cls-1" d="M89,26.15V8.34h7l3.33,8.43,3.21-8.43h7V26.15h-5V14.41l-3.08,7.79h-4.3L94,14.41V26.15Z"/><g class="cls-2"><path class="cls-1" d="M113.25,13.37V0h9.34V2.62h-6.48V5.71h6.48V8.33h-6.48v5Z"/><path class="cls-1" d="M124.27,1.31a1.35,1.35,0,1,1,1.34,1.31A1.31,1.31,0,0,1,124.27,1.31Zm0,12.06V4.16H127v9.21Z"/></g></g></g></svg>